<svg xmlns="http://www.w3.org/2000/svg" xmlns:xlink="http://www.w3.org/1999/xlink" preserveAspectRatio="xMidYMid" width="27" height="27" viewBox="0 0 27 27">
  <defs>
    <style>

      .cls-3 {
        fill: #3b5998;
      }

      .cls-4 {
        fill: #ffffff;
      }
    </style>
  </defs>
  <g id="-facebook">
    <circle id="circle-1" class="cls-3" cx="13" cy="13" r="13"/>
    <path d="M14.371,8.823 C14.371,8.823 16.021,8.823 16.021,8.823 C16.021,8.823 16.021,6.386 16.021,6.386 C16.021,6.386 14.082,6.386 14.082,6.386 C14.082,6.386 14.082,6.396 14.082,6.396 C11.733,6.478 11.250,7.799 11.208,9.188 C11.208,9.188 11.203,9.188 11.203,9.188 C11.203,9.188 11.203,10.404 11.203,10.404 C11.203,10.404 9.604,10.404 9.604,10.404 C9.604,10.404 9.604,12.790 9.604,12.790 C9.604,12.790 11.203,12.790 11.203,12.790 C11.203,12.790 11.203,19.187 11.203,19.187 C11.203,19.187 13.615,19.187 13.615,19.187 C13.615,19.187 13.615,12.790 13.615,12.790 C13.615,12.790 15.590,12.790 15.590,12.790 C15.590,12.790 15.971,10.404 15.971,10.404 C15.971,10.404 13.615,10.404 13.615,10.404 C13.615,10.404 13.615,9.668 13.615,9.668 C13.615,9.200 13.927,8.823 14.371,8.823 Z" id="path-1" class="cls-4" fill-rule="evenodd"/>
  </g>
</svg>
