<svg xmlns="http://www.w3.org/2000/svg" xmlns:xlink="http://www.w3.org/1999/xlink" preserveAspectRatio="xMidYMid" width="27" height="27" viewBox="0 0 27 27">
  <defs>
    <style>

      .cls-3 {
        fill: #3f729b;
      }

      .cls-4 {
        fill: #ffffff;
      }
    </style>
  </defs>
  <g id="instagrammsvg">
    <circle id="circle-1" class="cls-3" cx="13" cy="13" r="13"/>
    <path d="M17.231,5.610 C17.231,5.610 8.394,5.610 8.394,5.610 C6.859,5.610 5.610,6.858 5.610,8.393 C5.610,8.393 5.610,11.334 5.610,11.334 C5.610,11.334 5.610,17.230 5.610,17.230 C5.610,18.765 6.859,20.013 8.394,20.013 C8.394,20.013 17.231,20.013 17.231,20.013 C18.766,20.013 20.014,18.765 20.014,17.230 C20.014,17.230 20.014,11.334 20.014,11.334 C20.014,11.334 20.014,8.393 20.014,8.393 C20.014,6.858 18.766,5.610 17.231,5.610 ZM18.107,7.220 C18.107,7.220 18.422,7.219 18.422,7.219 C18.422,7.219 18.422,7.529 18.422,7.529 C18.422,7.529 18.422,9.610 18.422,9.610 C18.422,9.610 16.014,9.618 16.014,9.618 C16.014,9.618 16.006,7.227 16.006,7.227 C16.006,7.227 18.107,7.220 18.107,7.220 ZM12.812,10.402 C14.810,10.402 15.222,12.278 15.222,12.813 C15.222,14.140 14.141,15.221 12.812,15.221 C11.484,15.221 10.403,14.140 10.403,12.813 C10.403,12.278 10.815,10.402 12.812,10.402 ZM18.436,17.055 C18.436,17.817 17.817,18.435 17.056,18.435 C17.056,18.435 8.544,18.435 8.544,18.435 C7.783,18.435 7.164,17.817 7.164,17.055 C7.164,17.055 7.164,11.209 7.164,11.209 C7.164,11.209 9.164,11.209 9.164,11.209 C8.978,11.665 8.874,12.289 8.874,12.813 C8.874,14.983 10.641,16.751 12.812,16.751 C14.984,16.751 16.751,14.983 16.751,12.813 C16.751,12.289 16.646,11.665 16.460,11.209 C16.460,11.209 18.436,11.209 18.436,11.209 C18.436,11.209 18.436,17.055 18.436,17.055 Z" id="path-1" class="cls-4" fill-rule="evenodd"/>
  </g>
</svg>
