<svg xmlns="http://www.w3.org/2000/svg" xmlns:xlink="http://www.w3.org/1999/xlink" preserveAspectRatio="xMidYMid" width="27" height="27" viewBox="0 0 27 27">
  <defs>
    <style>

      .cls-3 {
        fill: #0e76a8;
      }

      .cls-4 {
        fill: #ffffff;
      }
    </style>
  </defs>
  <g id="linkedinsvg">
    <circle id="circle-1" class="cls-3" cx="13" cy="13" r="13"/>
    <path d="M16.821,17.600 C16.821,17.600 16.821,13.243 16.821,13.243 C16.821,12.349 16.563,11.456 15.511,11.456 C14.459,11.456 13.620,12.349 13.620,13.265 C13.620,13.265 13.620,17.600 13.620,17.600 C13.620,17.600 11.215,17.600 11.215,17.600 C11.215,17.600 11.215,9.585 11.215,9.585 C11.215,9.585 13.620,9.585 13.620,9.585 C13.620,9.585 13.620,10.696 13.620,10.696 C14.358,9.758 15.399,9.334 16.563,9.334 C17.726,9.334 19.218,9.914 19.218,13.065 C19.218,13.065 19.218,17.600 19.218,17.600 C19.218,17.600 16.821,17.600 16.821,17.600 ZM7.225,9.609 C7.225,9.609 9.622,9.609 9.622,9.609 C9.622,9.609 9.622,17.600 9.622,17.600 C9.622,17.600 7.225,17.600 7.225,17.600 C7.225,17.600 7.225,9.609 7.225,9.609 ZM8.412,8.812 C7.750,8.812 7.213,8.275 7.213,7.612 C7.213,6.950 7.750,6.412 8.412,6.412 C9.075,6.412 9.613,6.950 9.613,7.612 C9.613,8.275 9.075,8.812 8.412,8.812 Z" id="path-1" class="cls-4" fill-rule="evenodd"/>
  </g>
</svg>
