<svg xmlns="http://www.w3.org/2000/svg" xmlns:xlink="http://www.w3.org/1999/xlink" preserveAspectRatio="xMidYMid" width="27" height="27" viewBox="0 0 27 27">
  <defs>
    <style>

      .cls-3 {
        fill: #26a6d1;
      }

      .cls-4 {
        fill: #ffffff;
      }
    </style>
  </defs>
  <g id="twittersvg">
    <circle id="circle-1" class="cls-3" cx="13" cy="13" r="13"/>
    <path d="M20.815,8.635 C20.255,8.876 19.654,9.039 19.023,9.112 C19.667,8.737 20.162,8.145 20.394,7.437 C19.792,7.784 19.124,8.036 18.414,8.172 C17.845,7.583 17.034,7.216 16.137,7.216 C14.414,7.216 13.018,8.571 13.018,10.244 C13.018,10.480 13.045,10.711 13.098,10.933 C10.506,10.807 8.207,9.602 6.669,7.769 C6.401,8.217 6.247,8.737 6.247,9.292 C6.247,10.342 6.797,11.269 7.634,11.812 C7.123,11.796 6.642,11.660 6.222,11.433 C6.221,11.446 6.221,11.458 6.221,11.471 C6.221,12.938 7.296,14.161 8.724,14.440 C8.462,14.509 8.186,14.546 7.902,14.546 C7.700,14.546 7.505,14.527 7.315,14.492 C7.712,15.695 8.864,16.569 10.228,16.594 C9.161,17.406 7.816,17.890 6.354,17.890 C6.103,17.890 5.855,17.875 5.610,17.847 C6.991,18.707 8.631,19.208 10.392,19.208 C16.130,19.208 19.267,14.595 19.267,10.594 C19.267,10.463 19.264,10.331 19.258,10.203 C19.868,9.776 20.397,9.243 20.815,8.635 Z" id="path-1" class="cls-4" fill-rule="evenodd"/>
  </g>
</svg>
