<svg xmlns="http://www.w3.org/2000/svg" xmlns:xlink="http://www.w3.org/1999/xlink" preserveAspectRatio="xMidYMid" width="27" height="27" viewBox="0 0 27 27">
  <defs>
    <style>

      .cls-3 {
        fill: #86c9ef;
      }

      .cls-4 {
        fill: #ffffff;
      }
    </style>
  </defs>
  <g id="vimeosvg">
    <circle id="circle-1" class="cls-3" cx="13" cy="13" r="13"/>
    <path d="M5.612,10.411 C6.809,9.456 8.511,7.358 9.838,7.358 C11.164,7.358 11.489,8.924 11.670,10.345 C11.853,11.764 12.374,14.871 13.075,14.871 C13.777,14.871 15.377,12.123 15.285,11.061 C15.195,10.000 14.038,10.159 13.400,10.464 C13.985,8.340 15.338,7.212 17.067,7.212 C18.796,7.212 19.212,8.433 19.212,9.933 C19.212,12.217 14.584,19.211 11.788,19.211 C10.058,19.211 9.630,16.663 9.280,15.402 C8.928,14.141 8.239,10.835 7.433,10.623 C7.120,10.571 6.237,11.273 6.237,11.273 C6.237,11.273 5.612,10.411 5.612,10.411 Z" id="path-1" class="cls-4" fill-rule="evenodd"/>
  </g>
</svg>
